<?xml version="1.0" encoding="UTF-8"?>
<svg id="Layer_1" data-name="Layer 1" xmlns="http://www.w3.org/2000/svg" viewBox="0 0 176.95 283.47">
  <defs>
    <style>
      .cls-1 {
        fill: #bd1622;
      }
    </style>
  </defs>
  <path class="cls-1" d="m131.97,283.47c-3.26-2.85-6.07-5.3-8.87-7.77-22.44-19.8-44.88-39.61-67.32-59.41-16.89-14.91-33.75-29.85-50.7-44.69-2.24-1.96-3.19-4.01-3.24-7.03C1.33,135.45.69,106.34,0,77.23c-.05-2.26.57-3.9,2.18-5.5,15.73-15.55,31.4-31.15,47.08-46.76,7.84-7.8,15.7-15.59,23.45-23.48,1.5-1.53,2.74-1.91,4.77-1.03,26.63,11.49,53.3,22.9,79.96,34.33,2.9,1.24,5.88,2.34,8.65,3.83,1.03.56,2.12,1.98,2.24,3.11,1.91,18.1,3.71,36.22,5.43,54.34,1.2,12.66,2.47,25.32,3.17,38.01.2,3.58-1.36,7.3-2.39,10.88-2.95,10.29-5.96,20.57-9.09,30.81-6.76,22.08-13.63,44.12-20.43,66.19-3.96,12.86-7.86,25.74-11.81,38.61-.25.83-.68,1.6-1.24,2.9Z"/>
</svg>