<?xml version="1.0" encoding="UTF-8"?>
<svg id="Layer_1" data-name="Layer 1" xmlns="http://www.w3.org/2000/svg" viewBox="0 0 173.99 222.49">
  <defs>
    <style>
      .cls-1 {
        fill: #916036;
      }
    </style>
  </defs>
  <path class="cls-1" d="m173.99,35.22c-2.92,2.05-5.46,3.85-8.02,5.63-22.17,15.44-44.35,30.87-66.52,46.3-6.75,4.7-13.44,9.5-20.29,14.06-2.29,1.52-3.12,3.11-2.87,5.91,2.6,29.06,5.05,58.13,7.54,87.2.72,8.36,1.43,16.73,2.14,25.09.07.88.09,1.76.16,3.08-1.2-.49-2.03-.78-2.82-1.15-23.59-11.06-47.16-22.16-70.79-33.14-2.14-1-2.59-2.46-2.76-4.48-1.93-22.94-3.9-45.87-5.87-68.81-1.26-14.66-2.47-29.32-3.85-43.96-.24-2.54.65-3.92,2.65-5.3,16.21-11.19,32.36-22.47,48.53-33.72,14.81-10.3,29.64-20.56,44.42-30.9,1.69-1.18,3.09-1.37,5.01-.46,23.48,11.1,47,22.11,70.51,33.15.8.38,1.58.83,2.84,1.49Z"/>
</svg>